<?xml version="1.0" encoding="UTF-8"?>
<svg id="Layer_1" data-name="Layer 1" xmlns="http://www.w3.org/2000/svg" xmlns:xlink="http://www.w3.org/1999/xlink" version="1.1" viewBox="0 0 1084.7 1023">
  <defs>
    <style>
      .cls-1, .cls-2, .cls-3, .cls-4, .cls-5, .cls-6, .cls-7, .cls-8, .cls-9, .cls-10, .cls-11, .cls-12, .cls-13, .cls-14, .cls-15, .cls-16, .cls-17, .cls-18, .cls-19, .cls-20, .cls-21, .cls-22, .cls-23, .cls-24, .cls-25 {
        stroke-width: 0px;
      }

      .cls-1, .cls-26 {
        fill: url(#dark_2);
      }

      .cls-27 {
        clip-path: url(#clippath);
      }

      .cls-2 {
        fill: url(#dark_2-24);
      }

      .cls-3 {
        fill: url(#dark_2-23);
      }

      .cls-4 {
        fill: url(#dark_2-22);
      }

      .cls-5 {
        fill: url(#dark_2-21);
      }

      .cls-6 {
        fill: url(#dark_2-20);
      }

      .cls-7 {
        fill: url(#dark_2-25);
      }

      .cls-8 {
        fill: url(#dark_2-18);
      }

      .cls-9 {
        fill: url(#dark_2-17);
      }

      .cls-10 {
        fill: url(#dark_2-16);
      }

      .cls-11 {
        fill: url(#dark_2-19);
      }

      .cls-12 {
        fill: url(#dark_2-12);
      }

      .cls-13 {
        fill: url(#dark_2-13);
      }

      .cls-14 {
        fill: url(#dark_2-14);
      }

      .cls-15 {
        fill: url(#dark_2-15);
      }

      .cls-16 {
        fill: url(#dark_2-10);
      }

      .cls-17 {
        fill: url(#dark_2-11);
      }

      .cls-18 {
        fill: url(#dark_2-3);
      }

      .cls-19 {
        fill: url(#dark_2-5);
      }

      .cls-20 {
        fill: url(#dark_2-6);
      }

      .cls-21 {
        fill: url(#dark_2-7);
      }

      .cls-22 {
        fill: url(#dark_2-4);
      }

      .cls-23 {
        fill: url(#dark_2-2);
      }

      .cls-24 {
        fill: url(#dark_2-8);
      }

      .cls-25 {
        fill: url(#dark_2-9);
      }
    </style>
    <linearGradient id="dark_2" data-name="dark 2" x1=".4" y1="511.6" x2="1084.5" y2="511.6" gradientUnits="userSpaceOnUse">
      <stop offset="0" stop-color="#00273d"/>
      <stop offset="1" stop-color="#025b61"/>
    </linearGradient>
    <clipPath id="clippath">
      <rect class="cls-1" x=".4" y=".2" width="1084.1" height="1022.8"/>
    </clipPath>
    <linearGradient id="dark_2-2" data-name="dark 2" x1="-874.3" y1="205.6" x2="445.2" y2="-873.7" xlink:href="#dark_2"/>
    <linearGradient id="dark_2-3" data-name="dark 2" x1="-438.1" y1="-550.7" x2="1353.3" y2="1502.9" xlink:href="#dark_2"/>
    <linearGradient id="dark_2-4" data-name="dark 2" x1="-733.8" y1="377.4" x2="585.7" y2="-701.9" xlink:href="#dark_2"/>
    <linearGradient id="dark_2-5" data-name="dark 2" x1="-442.3" y1="-547" x2="1349.1" y2="1506.6" xlink:href="#dark_2"/>
    <linearGradient id="dark_2-6" data-name="dark 2" x1="-593.3" y1="549.2" x2="726.2" y2="-530.1" xlink:href="#dark_2"/>
    <linearGradient id="dark_2-7" data-name="dark 2" x1="-446.6" y1="-543.3" x2="1344.9" y2="1510.3" xlink:href="#dark_2"/>
    <linearGradient id="dark_2-8" data-name="dark 2" x1="-452.8" y1="721" x2="866.8" y2="-358.3" xlink:href="#dark_2"/>
    <linearGradient id="dark_2-9" data-name="dark 2" x1="-450.8" y1="-539.6" x2="1340.6" y2="1514" xlink:href="#dark_2"/>
    <linearGradient id="dark_2-10" data-name="dark 2" x1="-274.5" y1="866.5" x2="983.3" y2="-171.5" xlink:href="#dark_2"/>
    <linearGradient id="dark_2-11" data-name="dark 2" x1="-2" y1="-6.9" x2="1468.9" y2="-761.9" gradientTransform="translate(-229.4 990.9) rotate(-12.8)" xlink:href="#dark_2"/>
    <linearGradient id="dark_2-12" data-name="dark 2" x1="-18.5" y1="-300.5" x2="1701.5" y2="-300.5" gradientTransform="translate(-229.4 990.9) rotate(-12.8)" xlink:href="#dark_2"/>
    <linearGradient id="dark_2-13" data-name="dark 2" x1="-9.1" y1="-180.8" x2="1710.8" y2="-180.8" gradientTransform="translate(-229.4 990.9) rotate(-12.8)" xlink:href="#dark_2"/>
    <linearGradient id="dark_2-14" data-name="dark 2" x1="-312.3" y1="892.8" x2="1007.3" y2="-186.4" xlink:href="#dark_2"/>
    <linearGradient id="dark_2-15" data-name="dark 2" x1="-455" y1="-535.9" x2="1336.4" y2="1517.6" xlink:href="#dark_2"/>
    <linearGradient id="dark_2-16" data-name="dark 2" x1="-171.7" y1="1064.6" x2="1147.8" y2="-14.6" xlink:href="#dark_2"/>
    <linearGradient id="dark_2-17" data-name="dark 2" x1="-459.2" y1="-532.3" x2="1332.2" y2="1521.3" xlink:href="#dark_2"/>
    <linearGradient id="dark_2-18" data-name="dark 2" x1="-31.2" y1="1236.4" x2="1288.3" y2="157.2" xlink:href="#dark_2"/>
    <linearGradient id="dark_2-19" data-name="dark 2" x1="-463.5" y1="-528.6" x2="1328" y2="1525" xlink:href="#dark_2"/>
    <linearGradient id="dark_2-20" data-name="dark 2" x1="109.3" y1="1408.2" x2="1428.8" y2="329" xlink:href="#dark_2"/>
    <linearGradient id="dark_2-21" data-name="dark 2" x1="-467.7" y1="-524.9" x2="1323.7" y2="1528.7" xlink:href="#dark_2"/>
    <linearGradient id="dark_2-22" data-name="dark 2" x1="249.8" y1="1580" x2="1569.3" y2="500.8" xlink:href="#dark_2"/>
    <linearGradient id="dark_2-23" data-name="dark 2" x1="-471.9" y1="-521.2" x2="1319.5" y2="1532.4" xlink:href="#dark_2"/>
    <linearGradient id="dark_2-24" data-name="dark 2" x1="390.3" y1="1751.8" x2="1709.8" y2="672.6" xlink:href="#dark_2"/>
    <linearGradient id="dark_2-25" data-name="dark 2" x1="-476.1" y1="-517.5" x2="1315.3" y2="1536.1" xlink:href="#dark_2"/>
  </defs>
  <rect class="cls-26" x=".4" y=".2" width="1084.1" height="1022.8"/>
  <g class="cls-27">
    <g>
      <g>
        <path class="cls-23" d="M278.4-1067.4c-18.2-21.9-50.6-24.9-72.5-6.8-21.9,18.2-24.9,50.6-6.8,72.5,18.2,21.9,15.1,54.4-6.8,72.5-21.9,18.2-54.4,15.1-72.5-6.8-18.2-21.9-50.6-24.9-72.5-6.8-21.9,18.2-24.9,50.6-6.8,72.5,18.2,21.9,15.1,54.4-6.8,72.5-21.9,18.2-54.4,15.1-72.5-6.8-18.2-21.9-50.6-24.9-72.5-6.8-21.9,18.2-24.9,50.6-6.8,72.5,18.2,21.9,15.1,54.4-6.8,72.5-21.9,18.2-54.4,15.1-72.5-6.8-18.2-21.9-50.6-24.9-72.5-6.8-21.9,18.2-24.9,50.6-6.8,72.5,18.2,21.9,15.1,54.4-6.8,72.5-21.9,18.2-54.4,15.1-72.5-6.8-18.2-21.9-50.6-24.9-72.5-6.8-21.9,18.2-24.9,50.6-6.8,72.5,18.2,21.9,15.1,54.4-6.8,72.5-21.9,18.2-54.4,15.1-72.5-6.8-18.2-21.9-50.6-24.9-72.5-6.8-21.9,18.2-24.9,50.6-6.8,72.5,18.2,21.9,15.1,54.4-6.8,72.5-21.9,18.2-54.4,15.1-72.5-6.8-18.2-21.9-50.6-24.9-72.5-6.8-21.9,18.2-24.9,50.6-6.8,72.5,18.2,21.9,15.1,54.4-6.8,72.5-21.9,18.2-54.4,15.1-72.5-6.8-18.2-21.9-50.6-24.9-72.5-6.8-21.9,18.2-24.9,50.6-6.8,72.5,18.2,21.9,15.1,54.4-6.8,72.5-21.9,18.2-54.4,15.1-72.5-6.8l352,424.7L630.3-642.7l-352-424.7Z"/>
        <path class="cls-18" d="M314-952.7c-18.2-21.9-50.6-24.9-72.5-6.8-21.9,18.2-24.9,50.6-6.8,72.5,18.2,21.9,15.1,54.4-6.8,72.5-21.9,18.2-54.4,15.1-72.5-6.8-18.2-21.9-50.6-24.9-72.5-6.8-21.9,18.2-24.9,50.6-6.8,72.5,18.2,21.9,15.1,54.4-6.8,72.5-21.9,18.2-54.4,15.1-72.5-6.8-18.2-21.9-50.6-24.9-72.5-6.8-21.9,18.2-24.9,50.6-6.8,72.5,18.2,21.9,15.1,54.4-6.8,72.5s-54.4,15.1-72.5-6.8c-18.2-21.9-50.6-24.9-72.5-6.8-21.9,18.2-24.9,50.6-6.8,72.5s15.1,54.4-6.8,72.5c-21.9,18.2-54.4,15.1-72.5-6.8-18.2-21.9-50.6-24.9-72.5-6.8-21.9,18.2-24.9,50.6-6.8,72.5,18.2,21.9,15.1,54.4-6.8,72.5-21.9,18.2-54.4,15.1-72.5-6.8s-50.6-24.9-72.5-6.8c-21.9,18.2-24.9,50.6-6.8,72.5,18.2,21.9,15.1,54.4-6.8,72.5-21.9,18.2-54.4,15.1-72.5-6.8-18.2-21.9-50.6-24.9-72.5-6.8-21.9,18.2-24.9,50.6-6.8,72.5s15.1,54.4-6.8,72.5-54.4,15.1-72.5-6.8c-18.2-21.9-50.6-24.9-72.5-6.8-21.9,18.2-24.9,50.6-6.8,72.5,18.2,21.9,15.1,54.4-6.8,72.5-21.9,18.2-54.4,15.1-72.5-6.8l352,424.7L665.9-528l-352-424.7Z"/>
        <path class="cls-22" d="M420-896.5c-18.2-21.9-50.6-24.9-72.5-6.8-21.9,18.2-24.9,50.6-6.8,72.5,18.2,21.9,15.1,54.4-6.8,72.5-21.9,18.2-54.4,15.1-72.5-6.8-18.2-21.9-50.6-24.9-72.5-6.8-21.9,18.2-24.9,50.6-6.8,72.5,18.2,21.9,15.1,54.4-6.8,72.5-21.9,18.2-54.4,15.1-72.5-6.8-18.2-21.9-50.6-24.9-72.5-6.8-21.9,18.2-24.9,50.6-6.8,72.5,18.2,21.9,15.1,54.4-6.8,72.5-21.9,18.2-54.4,15.1-72.5-6.8-18.2-21.9-50.6-24.9-72.5-6.8-21.9,18.2-24.9,50.6-6.8,72.5,18.2,21.9,15.1,54.4-6.8,72.5s-54.4,15.1-72.5-6.8c-18.2-21.9-50.6-24.9-72.5-6.8-21.9,18.2-24.9,50.6-6.8,72.5,18.2,21.9,15.1,54.4-6.8,72.5-21.9,18.2-54.4,15.1-72.5-6.8-18.2-21.9-50.6-24.9-72.5-6.8-21.9,18.2-24.9,50.6-6.8,72.5,18.2,21.9,15.1,54.4-6.8,72.5-21.9,18.2-54.4,15.1-72.5-6.8-18.2-21.9-50.6-24.9-72.5-6.8-21.9,18.2-24.9,50.6-6.8,72.5,18.2,21.9,15.1,54.4-6.8,72.5-21.9,18.2-54.4,15.1-72.5-6.8-18.2-21.9-50.6-24.9-72.5-6.8s-24.9,50.6-6.8,72.5c18.2,21.9,15.1,54.4-6.8,72.5-21.9,18.2-54.4,15.1-72.5-6.8l352,424.7L772-471.8l-352-424.7Z"/>
        <path class="cls-19" d="M455.6-781.8c-18.2-21.9-50.6-24.9-72.5-6.8-21.9,18.2-24.9,50.6-6.8,72.5,18.2,21.9,15.1,54.4-6.8,72.5-21.9,18.2-54.4,15.1-72.5-6.8-18.2-21.9-50.6-24.9-72.5-6.8s-24.9,50.6-6.8,72.5c18.2,21.9,15.1,54.4-6.8,72.5-21.9,18.2-54.4,15.1-72.5-6.8-18.2-21.9-50.6-24.9-72.5-6.8-21.9,18.2-24.9,50.6-6.8,72.5,18.2,21.9,15.1,54.4-6.8,72.5-21.9,18.2-54.4,15.1-72.5-6.8-18.2-21.9-50.6-24.9-72.5-6.8-21.9,18.2-24.9,50.6-6.8,72.5,18.2,21.9,15.1,54.4-6.8,72.5-21.9,18.2-54.4,15.1-72.5-6.8-18.2-21.9-50.6-24.9-72.5-6.8-21.9,18.2-24.9,50.6-6.8,72.5,18.2,21.9,15.1,54.4-6.8,72.5-21.9,18.2-54.4,15.1-72.5-6.8-18.2-21.9-50.6-24.9-72.5-6.8-21.9,18.2-24.9,50.6-6.8,72.5,18.2,21.9,15.1,54.4-6.8,72.5-21.9,18.2-54.4,15.1-72.5-6.8-18.2-21.9-50.6-24.9-72.5-6.8-21.9,18.2-24.9,50.6-6.8,72.5s15.1,54.4-6.8,72.5c-21.9,18.2-54.4,15.1-72.5-6.8s-50.6-24.9-72.5-6.8c-21.9,18.2-24.9,50.6-6.8,72.5s15.1,54.4-6.8,72.5-54.4,15.1-72.5-6.8l352,424.7L807.6-357.2l-352-424.7Z"/>
        <path class="cls-20" d="M561.6-725.6c-18.2-21.9-50.6-24.9-72.5-6.8-21.9,18.2-24.9,50.6-6.8,72.5,18.2,21.9,15.1,54.4-6.8,72.5-21.9,18.2-54.4,15.1-72.5-6.8-18.2-21.9-50.6-24.9-72.5-6.8-21.9,18.2-24.9,50.6-6.8,72.5,18.2,21.9,15.1,54.4-6.8,72.5-21.9,18.2-54.4,15.1-72.5-6.8-18.2-21.9-50.6-24.9-72.5-6.8-21.9,18.2-24.9,50.6-6.8,72.5,18.2,21.9,15.1,54.4-6.8,72.5-21.9,18.2-54.4,15.1-72.5-6.8-18.2-21.9-50.6-24.9-72.5-6.8-21.9,18.2-24.9,50.6-6.8,72.5,18.2,21.9,15.1,54.4-6.8,72.5-21.9,18.2-54.4,15.1-72.5-6.8-18.2-21.9-50.6-24.9-72.5-6.8-21.9,18.2-24.9,50.6-6.8,72.5,18.2,21.9,15.1,54.4-6.8,72.5-21.9,18.2-54.4,15.1-72.5-6.8-18.2-21.9-50.6-24.9-72.5-6.8-21.9,18.2-24.9,50.6-6.8,72.5,18.2,21.9,15.1,54.4-6.8,72.5-21.9,18.2-54.4,15.1-72.5-6.8-18.2-21.9-50.6-24.9-72.5-6.8-21.9,18.2-24.9,50.6-6.8,72.5,18.2,21.9,15.1,54.4-6.8,72.5-21.9,18.2-54.4,15.1-72.5-6.8s-50.6-24.9-72.5-6.8c-21.9,18.2-24.9,50.6-6.8,72.5,18.2,21.9,15.1,54.4-6.8,72.5-21.9,18.2-54.4,15.1-72.5-6.8l352,424.7L913.6-300.9l-352-424.7Z"/>
        <path class="cls-21" d="M597.2-610.9c-18.2-21.9-50.6-24.9-72.5-6.8-21.9,18.2-24.9,50.6-6.8,72.5,18.2,21.9,15.1,54.4-6.8,72.5-21.9,18.2-54.4,15.1-72.5-6.8-18.2-21.9-50.6-24.9-72.5-6.8-21.9,18.2-24.9,50.6-6.8,72.5,18.2,21.9,15.1,54.4-6.8,72.5-21.9,18.2-54.4,15.1-72.5-6.8-18.2-21.9-50.6-24.9-72.5-6.8-21.9,18.2-24.9,50.6-6.8,72.5,18.2,21.9,15.1,54.4-6.8,72.5-21.9,18.2-54.4,15.1-72.5-6.8-18.2-21.9-50.6-24.9-72.5-6.8-21.9,18.2-24.9,50.6-6.8,72.5,18.2,21.9,15.1,54.4-6.8,72.5-21.9,18.2-54.4,15.1-72.5-6.8-18.2-21.9-50.6-24.9-72.5-6.8-21.9,18.2-24.9,50.6-6.8,72.5,18.2,21.9,15.1,54.4-6.8,72.5-21.9,18.2-54.4,15.1-72.5-6.8-18.2-21.9-50.6-24.9-72.5-6.8-21.9,18.2-24.9,50.6-6.8,72.5,18.2,21.9,15.1,54.4-6.8,72.5s-54.4,15.1-72.5-6.8c-18.2-21.9-50.6-24.9-72.5-6.8-21.9,18.2-24.9,50.6-6.8,72.5,18.2,21.9,15.1,54.4-6.8,72.5-21.9,18.2-54.4,15.1-72.5-6.8-18.2-21.9-50.6-24.9-72.5-6.8-21.9,18.2-24.9,50.6-6.8,72.5,18.2,21.9,15.1,54.4-6.8,72.5-21.9,18.2-54.4,15.1-72.5-6.8l352,424.7L949.2-186.3l-352-424.7Z"/>
        <path class="cls-24" d="M703.3-554.7c-18.2-21.9-50.6-24.9-72.5-6.8-21.9,18.2-24.9,50.6-6.8,72.5,18.2,21.9,15.1,54.4-6.8,72.5-21.9,18.2-54.4,15.1-72.5-6.8-18.2-21.9-50.6-24.9-72.5-6.8-21.9,18.2-24.9,50.6-6.8,72.5,18.2,21.9,15.1,54.4-6.8,72.5-21.9,18.2-54.4,15.1-72.5-6.8-18.2-21.9-50.6-24.9-72.5-6.8s-24.9,50.6-6.8,72.5c18.2,21.9,15.1,54.4-6.8,72.5-21.9,18.2-54.4,15.1-72.5-6.8-18.2-21.9-50.6-24.9-72.5-6.8-21.9,18.2-24.9,50.6-6.8,72.5,18.2,21.9,15.1,54.4-6.8,72.5-21.9,18.2-54.4,15.1-72.5-6.8-18.2-21.9-50.6-24.9-72.5-6.8C-25.9-17.3-28.9,15.2-10.7,37.1c18.2,21.9,15.1,54.4-6.8,72.5-21.9,18.2-54.4,15.1-72.5-6.8-18.2-21.9-50.6-24.9-72.5-6.8-21.9,18.2-24.9,50.6-6.8,72.5,18.2,21.9,15.1,54.4-6.8,72.5-21.9,18.2-54.4,15.1-72.5-6.8-18.2-21.9-50.6-24.9-72.5-6.8-21.9,18.2-24.9,50.6-6.8,72.5,18.2,21.9,15.1,54.4-6.8,72.5-21.9,18.2-54.4,15.1-72.5-6.8-18.2-21.9-50.6-24.9-72.5-6.8-21.9,18.2-24.9,50.6-6.8,72.5,18.2,21.9,15.1,54.4-6.8,72.5-21.9,18.2-54.4,15.1-72.5-6.8l352,424.7L1055.2-130l-352-424.7Z"/>
        <path class="cls-25" d="M738.9-440.1c-18.2-21.9-50.6-24.9-72.5-6.8-21.9,18.2-24.9,50.6-6.8,72.5s15.1,54.4-6.8,72.5c-21.9,18.2-54.4,15.1-72.5-6.8-18.2-21.9-50.6-24.9-72.5-6.8-21.9,18.2-24.9,50.6-6.8,72.5,18.2,21.9,15.1,54.4-6.8,72.5-21.9,18.2-54.4,15.1-72.5-6.8-18.2-21.9-50.6-24.9-72.5-6.8-21.9,18.2-24.9,50.6-6.8,72.5,18.2,21.9,15.1,54.4-6.8,72.5-21.9,18.2-54.4,15.1-72.5-6.8-18.2-21.9-50.6-24.9-72.5-6.8s-24.9,50.6-6.8,72.5c18.2,21.9,15.1,54.4-6.8,72.5-21.9,18.2-54.4,15.1-72.5-6.8-18.2-21.9-50.6-24.9-72.5-6.8-21.9,18.2-24.9,50.6-6.8,72.5,18.2,21.9,15.1,54.4-6.8,72.5-21.9,18.2-54.4,15.1-72.5-6.8-18.2-21.9-50.6-24.9-72.5-6.8-21.9,18.2-24.9,50.6-6.8,72.5,18.2,21.9,15.1,54.4-6.8,72.5-21.9,18.2-54.4,15.1-72.5-6.8-18.2-21.9-50.6-24.9-72.5-6.8-21.9,18.2-24.9,50.6-6.8,72.5,18.2,21.9,15.1,54.4-6.8,72.5-21.9,18.2-54.4,15.1-72.5-6.8-18.2-21.9-50.6-24.9-72.5-6.8-21.9,18.2-24.9,50.6-6.8,72.5,18.2,21.9,15.1,54.4-6.8,72.5-21.9,18.2-54.4,15.1-72.5-6.8l352,424.7L1090.8-15.4l-352-424.7Z"/>
        <path class="cls-16" d="M844.9-383.8c-18.2-21.9-50.6-24.9-72.5-6.8-21.9,18.2-24.9,50.6-6.8,72.5,18.2,21.9,15.1,54.4-6.8,72.5-21.9,18.2-54.4,15.1-72.5-6.8-18.2-21.9-50.6-24.9-72.5-6.8-21.9,18.2-24.9,50.6-6.8,72.5,18.2,21.9,15.1,54.4-6.8,72.5-21.9,18.2-54.4,15.1-72.5-6.8-18.2-21.9-50.6-24.9-72.5-6.8-21.9,18.2-24.9,50.6-6.8,72.5,18.2,21.9,15.1,54.4-6.8,72.5-21.9,18.2-54.4,15.1-72.5-6.8-18.2-21.9-50.6-24.9-72.5-6.8-21.9,18.2-24.9,50.6-6.8,72.5,18.2,21.9,15.1,54.4-6.8,72.5-21.9,18.2-54.4,15.1-72.5-6.8-18.2-21.9-50.6-24.9-72.5-6.8-21.9,18.2-24.9,50.6-6.8,72.5,18.2,21.9,15.1,54.4-6.8,72.5-21.9,18.2-54.4,15.1-72.5-6.8-18.2-21.9-50.6-24.9-72.5-6.8-21.9,18.2-24.9,50.6-6.8,72.5,18.2,21.9,15.1,54.4-6.8,72.5-21.9,18.2-54.4,15.1-72.5-6.8-18.2-21.9-50.6-24.9-72.5-6.8-21.9,18.2-24.9,50.6-6.8,72.5,18.2,21.9,15.1,54.4-6.8,72.5-21.9,18.2-54.4,15.1-72.5-6.8-18.2-21.9-50.6-24.9-72.5-6.8-21.9,18.2-24.9,50.6-6.8,72.5,18.2,21.9,15.1,54.4-6.8,72.5-21.9,18.2-54.4,15.1-72.5-6.8l352,424.7L1196.9,40.9l-352-424.7Z"/>
        <path class="cls-17" d="M880.5-269.2c-18.2-21.9-50.6-24.9-72.5-6.8-21.9,18.2-24.9,50.6-6.8,72.5,18.2,21.9,15.1,54.4-6.8,72.5-21.9,18.2-54.4,15.1-72.5-6.8-18.2-21.9-50.6-24.9-72.5-6.8-21.9,18.2-24.9,50.6-6.8,72.5,18.2,21.9,15.1,54.4-6.8,72.5-21.9,18.2-54.4,15.1-72.5-6.8-18.2-21.9-50.6-24.9-72.5-6.8-21.9,18.2-24.9,50.6-6.8,72.5,18.2,21.9,15.1,54.4-6.8,72.5-21.9,18.2-54.4,15.1-72.5-6.8-18.2-21.9-50.6-24.9-72.5-6.8-21.9,18.2-24.9,50.6-6.8,72.5,18.2,21.9,15.1,54.4-6.8,72.5-21.9,18.2-54.4,15.1-72.5-6.8-18.2-21.9-50.6-24.9-72.5-6.8-21.9,18.2-24.9,50.6-6.8,72.5,18.2,21.9,15.1,54.4-6.8,72.5-21.9,18.2-54.4,15.1-72.5-6.8-18.2-21.9-50.6-24.9-72.5-6.8s-24.9,50.6-6.8,72.5c18.2,21.9,15.1,54.4-6.8,72.5-21.9,18.2-54.4,15.1-72.5-6.8-18.2-21.9-50.6-24.9-72.5-6.8-21.9,18.2-24.9,50.6-6.8,72.5,18.2,21.9,15.1,54.4-6.8,72.5-21.9,18.2-54.4,15.1-72.5-6.8-18.2-21.9-50.6-24.9-72.5-6.8-21.9,18.2-24.9,50.6-6.8,72.5,18.2,21.9,15.1,54.4-6.8,72.5-21.9,18.2-54.4,15.1-72.5-6.8L-36.9,1207.6,1232.5,155.5l-352-424.7Z"/>
        <path class="cls-12" d="M986.5-212.9c-18.2-21.9-50.6-24.9-72.5-6.8-21.9,18.2-24.9,50.6-6.8,72.5s15.1,54.4-6.8,72.5c-21.9,18.2-54.4,15.1-72.5-6.8-18.2-21.9-50.6-24.9-72.5-6.8-21.9,18.2-24.9,50.6-6.8,72.5,18.2,21.9,15.1,54.4-6.8,72.5-21.9,18.2-54.4,15.1-72.5-6.8-18.2-21.9-50.6-24.9-72.5-6.8-21.9,18.2-24.9,50.6-6.8,72.5,18.2,21.9,15.1,54.4-6.8,72.5-21.9,18.2-54.4,15.1-72.5-6.8-18.2-21.9-50.6-24.9-72.5-6.8s-24.9,50.6-6.8,72.5c18.2,21.9,15.1,54.4-6.8,72.5-21.9,18.2-54.4,15.1-72.5-6.8-18.2-21.9-50.6-24.9-72.5-6.8-21.9,18.2-24.9,50.6-6.8,72.5,18.2,21.9,15.1,54.4-6.8,72.5-21.9,18.2-54.4,15.1-72.5-6.8-18.2-21.9-50.6-24.9-72.5-6.8-21.9,18.2-24.9,50.6-6.8,72.5,18.2,21.9,15.1,54.4-6.8,72.5-21.9,18.2-54.4,15.1-72.5-6.8-18.2-21.9-50.6-24.9-72.5-6.8-21.9,18.2-24.9,50.6-6.8,72.5,18.2,21.9,15.1,54.4-6.8,72.5-21.9,18.2-54.4,15.1-72.5-6.8-18.2-21.9-50.6-24.9-72.5-6.8-21.9,18.2-24.9,50.6-6.8,72.5,18.2,21.9,15.1,54.4-6.8,72.5-21.9,18.2-54.4,15.1-72.5-6.8l352,424.7L1338.5,211.8l-352-424.7Z"/>
        <path class="cls-13" d="M1022.1-98.3c-18.2-21.9-50.6-24.9-72.5-6.8-21.9,18.2-24.9,50.6-6.8,72.5,18.2,21.9,15.1,54.4-6.8,72.5-21.9,18.2-54.4,15.1-72.5-6.8-18.2-21.9-50.6-24.9-72.5-6.8-21.9,18.2-24.9,50.6-6.8,72.5,18.2,21.9,15.1,54.4-6.8,72.5-21.9,18.2-54.4,15.1-72.5-6.8-18.2-21.9-50.6-24.9-72.5-6.8-21.9,18.2-24.9,50.6-6.8,72.5,18.2,21.9,15.1,54.4-6.8,72.5-21.9,18.2-54.4,15.1-72.5-6.8-18.2-21.9-50.6-24.9-72.5-6.8-21.9,18.2-24.9,50.6-6.8,72.5,18.2,21.9,15.1,54.4-6.8,72.5-21.9,18.2-54.4,15.1-72.5-6.8-18.2-21.9-50.6-24.9-72.5-6.8-21.9,18.2-24.9,50.6-6.8,72.5,18.2,21.9,15.1,54.4-6.8,72.5-21.9,18.2-54.4,15.1-72.5-6.8s-50.6-24.9-72.5-6.8c-21.9,18.2-24.9,50.6-6.8,72.5,18.2,21.9,15.1,54.4-6.8,72.5-21.9,18.2-54.4,15.1-72.5-6.8-18.2-21.9-50.6-24.9-72.5-6.8-21.9,18.2-24.9,50.6-6.8,72.5,18.2,21.9,15.1,54.4-6.8,72.5-21.9,18.2-54.4,15.1-72.5-6.8-18.2-21.9-50.6-24.9-72.5-6.8-21.9,18.2-24.9,50.6-6.8,72.5,18.2,21.9,15.1,54.4-6.8,72.5-21.9,18.2-54.4,15.1-72.5-6.8l352,424.7L1374.1,326.4,1022.1-98.3Z"/>
      </g>
      <g>
        <path class="cls-14" d="M844.9-383.8c-18.2-21.9-50.6-24.9-72.5-6.8-21.9,18.2-24.9,50.6-6.8,72.5,18.2,21.9,15.1,54.4-6.8,72.5-21.9,18.2-54.4,15.1-72.5-6.8-18.2-21.9-50.6-24.9-72.5-6.8-21.9,18.2-24.9,50.6-6.8,72.5,18.2,21.9,15.1,54.4-6.8,72.5-21.9,18.2-54.4,15.1-72.5-6.8-18.2-21.9-50.6-24.9-72.5-6.8-21.9,18.2-24.9,50.6-6.8,72.5,18.2,21.9,15.1,54.4-6.8,72.5-21.9,18.2-54.4,15.1-72.5-6.8-18.2-21.9-50.6-24.9-72.5-6.8-21.9,18.2-24.9,50.6-6.8,72.5,18.2,21.9,15.1,54.4-6.8,72.5-21.9,18.2-54.4,15.1-72.5-6.8-18.2-21.9-50.6-24.9-72.5-6.8-21.9,18.2-24.9,50.6-6.8,72.5,18.2,21.9,15.1,54.4-6.8,72.5-21.9,18.2-54.4,15.1-72.5-6.8-18.2-21.9-50.6-24.9-72.5-6.8-21.9,18.2-24.9,50.6-6.8,72.5,18.2,21.9,15.1,54.4-6.8,72.5-21.9,18.2-54.4,15.1-72.5-6.8-18.2-21.9-50.6-24.9-72.5-6.8-21.9,18.2-24.9,50.6-6.8,72.5,18.2,21.9,15.1,54.4-6.8,72.5-21.9,18.2-54.4,15.1-72.5-6.8-18.2-21.9-50.6-24.9-72.5-6.8-21.9,18.2-24.9,50.6-6.8,72.5,18.2,21.9,15.1,54.4-6.8,72.5-21.9,18.2-54.4,15.1-72.5-6.8l352,424.7L1196.9,40.9l-352-424.7Z"/>
        <path class="cls-15" d="M880.5-269.2c-18.2-21.9-50.6-24.9-72.5-6.8-21.9,18.2-24.9,50.6-6.8,72.5,18.2,21.9,15.1,54.4-6.8,72.5-21.9,18.2-54.4,15.1-72.5-6.8-18.2-21.9-50.6-24.9-72.5-6.8-21.9,18.2-24.9,50.6-6.8,72.5,18.2,21.9,15.1,54.4-6.8,72.5-21.9,18.2-54.4,15.1-72.5-6.8-18.2-21.9-50.6-24.9-72.5-6.8-21.9,18.2-24.9,50.6-6.8,72.5,18.2,21.9,15.1,54.4-6.8,72.5s-54.4,15.1-72.5-6.8c-18.2-21.9-50.6-24.9-72.5-6.8-21.9,18.2-24.9,50.6-6.8,72.5s15.1,54.4-6.8,72.5c-21.9,18.2-54.4,15.1-72.5-6.8-18.2-21.9-50.6-24.9-72.5-6.8-21.9,18.2-24.9,50.6-6.8,72.5,18.2,21.9,15.1,54.4-6.8,72.5-21.9,18.2-54.4,15.1-72.5-6.8s-50.6-24.9-72.5-6.8c-21.9,18.2-24.9,50.6-6.8,72.5,18.2,21.9,15.1,54.4-6.8,72.5-21.9,18.2-54.4,15.1-72.5-6.8-18.2-21.9-50.6-24.9-72.5-6.8-21.9,18.2-24.9,50.6-6.8,72.5,18.2,21.9,15.1,54.4-6.8,72.5-21.9,18.2-54.4,15.1-72.5-6.8-18.2-21.9-50.6-24.9-72.5-6.8-21.9,18.2-24.9,50.6-6.8,72.5,18.2,21.9,15.1,54.4-6.8,72.5-21.9,18.2-54.4,15.1-72.5-6.8L-36.9,1207.6,1232.5,155.5l-352-424.7Z"/>
        <path class="cls-10" d="M986.5-212.9c-18.2-21.9-50.6-24.9-72.5-6.8-21.9,18.2-24.9,50.6-6.8,72.5,18.2,21.9,15.1,54.4-6.8,72.5-21.9,18.2-54.4,15.1-72.5-6.8-18.2-21.9-50.6-24.9-72.5-6.8-21.9,18.2-24.9,50.6-6.8,72.5,18.2,21.9,15.1,54.4-6.8,72.5-21.9,18.2-54.4,15.1-72.5-6.8-18.2-21.9-50.6-24.9-72.5-6.8-21.9,18.2-24.9,50.6-6.8,72.5,18.2,21.9,15.1,54.4-6.8,72.5-21.9,18.2-54.4,15.1-72.5-6.8-18.2-21.9-50.6-24.9-72.5-6.8-21.9,18.2-24.9,50.6-6.8,72.5,18.2,21.9,15.1,54.4-6.8,72.5s-54.4,15.1-72.5-6.8c-18.2-21.9-50.6-24.9-72.5-6.8-21.9,18.2-24.9,50.6-6.8,72.5,18.2,21.9,15.1,54.4-6.8,72.5-21.9,18.2-54.4,15.1-72.5-6.8-18.2-21.9-50.6-24.9-72.5-6.8-21.9,18.2-24.9,50.6-6.8,72.5,18.2,21.9,15.1,54.4-6.8,72.5-21.9,18.2-54.4,15.1-72.5-6.8-18.2-21.9-50.6-24.9-72.5-6.8-21.9,18.2-24.9,50.6-6.8,72.5,18.2,21.9,15.1,54.4-6.8,72.5-21.9,18.2-54.4,15.1-72.5-6.8-18.2-21.9-50.6-24.9-72.5-6.8-21.9,18.2-24.9,50.6-6.8,72.5,18.2,21.9,15.1,54.4-6.8,72.5-21.9,18.2-54.4,15.1-72.5-6.8l352,424.7L1338.5,211.8l-352-424.7Z"/>
        <path class="cls-9" d="M1022.1-98.3c-18.2-21.9-50.6-24.9-72.5-6.8-21.9,18.2-24.9,50.6-6.8,72.5,18.2,21.9,15.1,54.4-6.8,72.5-21.9,18.2-54.4,15.1-72.5-6.8-18.2-21.9-50.6-24.9-72.5-6.8s-24.9,50.6-6.8,72.5c18.2,21.9,15.1,54.4-6.8,72.5-21.9,18.2-54.4,15.1-72.5-6.8-18.2-21.9-50.6-24.9-72.5-6.8-21.9,18.2-24.9,50.6-6.8,72.5,18.2,21.9,15.1,54.4-6.8,72.5-21.9,18.2-54.4,15.1-72.5-6.8-18.2-21.9-50.6-24.9-72.5-6.8-21.9,18.2-24.9,50.6-6.8,72.5,18.2,21.9,15.1,54.4-6.8,72.5-21.9,18.2-54.4,15.1-72.5-6.8-18.2-21.9-50.6-24.9-72.5-6.8-21.9,18.2-24.9,50.6-6.8,72.5,18.2,21.9,15.1,54.4-6.8,72.5-21.9,18.2-54.4,15.1-72.5-6.8-18.2-21.9-50.6-24.9-72.5-6.8-21.9,18.2-24.9,50.6-6.8,72.5,18.2,21.9,15.1,54.4-6.8,72.5-21.9,18.2-54.4,15.1-72.5-6.8-18.2-21.9-50.6-24.9-72.5-6.8-21.9,18.2-24.9,50.6-6.8,72.5,18.2,21.9,15.1,54.4-6.8,72.5-21.9,18.2-54.4,15.1-72.5-6.8-18.2-21.9-50.6-24.9-72.5-6.8-21.9,18.2-24.9,50.6-6.8,72.5,18.2,21.9,15.1,54.4-6.8,72.5-21.9,18.2-54.4,15.1-72.5-6.8l352,424.7L1374.1,326.4,1022.1-98.3Z"/>
        <path class="cls-8" d="M1128.2-42c-18.2-21.9-50.6-24.9-72.5-6.8-21.9,18.2-24.9,50.6-6.8,72.5,18.2,21.9,15.1,54.4-6.8,72.5-21.9,18.2-54.4,15.1-72.5-6.8-18.2-21.9-50.6-24.9-72.5-6.8-21.9,18.2-24.9,50.6-6.8,72.5,18.2,21.9,15.1,54.4-6.8,72.5-21.9,18.2-54.4,15.1-72.5-6.8-18.2-21.9-50.6-24.9-72.5-6.8-21.9,18.2-24.9,50.6-6.8,72.5,18.2,21.9,15.1,54.4-6.8,72.5-21.9,18.2-54.4,15.1-72.5-6.8-18.2-21.9-50.6-24.9-72.5-6.8-21.9,18.2-24.9,50.6-6.8,72.5,18.2,21.9,15.1,54.4-6.8,72.5-21.9,18.2-54.4,15.1-72.5-6.8-18.2-21.9-50.6-24.9-72.5-6.8-21.9,18.2-24.9,50.6-6.8,72.5,18.2,21.9,15.1,54.4-6.8,72.5-21.9,18.2-54.4,15.1-72.5-6.8-18.2-21.9-50.6-24.9-72.5-6.8-21.9,18.2-24.9,50.6-6.8,72.5,18.2,21.9,15.1,54.4-6.8,72.5-21.9,18.2-54.4,15.1-72.5-6.8-18.2-21.9-50.6-24.9-72.5-6.8-21.9,18.2-24.9,50.6-6.8,72.5,18.2,21.9,15.1,54.4-6.8,72.5-21.9,18.2-54.4,15.1-72.5-6.8s-50.6-24.9-72.5-6.8c-21.9,18.2-24.9,50.6-6.8,72.5,18.2,21.9,15.1,54.4-6.8,72.5-21.9,18.2-54.4,15.1-72.5-6.8l352,424.7L1480.1,382.7,1128.2-42Z"/>
        <path class="cls-11" d="M1163.8,72.6c-18.2-21.9-50.6-24.9-72.5-6.8-21.9,18.2-24.9,50.6-6.8,72.5,18.2,21.9,15.1,54.4-6.8,72.5-21.9,18.2-54.4,15.1-72.5-6.8-18.2-21.9-50.6-24.9-72.5-6.8-21.9,18.2-24.9,50.6-6.8,72.5,18.2,21.9,15.1,54.4-6.8,72.5-21.9,18.2-54.4,15.1-72.5-6.8-18.2-21.9-50.6-24.9-72.5-6.8-21.9,18.2-24.9,50.6-6.8,72.5,18.2,21.9,15.1,54.4-6.8,72.5-21.9,18.2-54.4,15.1-72.5-6.8-18.2-21.9-50.6-24.9-72.5-6.8-21.9,18.2-24.9,50.6-6.8,72.5,18.2,21.9,15.1,54.4-6.8,72.5-21.9,18.2-54.4,15.1-72.5-6.8-18.2-21.9-50.6-24.9-72.5-6.8-21.9,18.2-24.9,50.6-6.8,72.5,18.2,21.9,15.1,54.4-6.8,72.5-21.9,18.2-54.4,15.1-72.5-6.8-18.2-21.9-50.6-24.9-72.5-6.8-21.9,18.2-24.9,50.6-6.8,72.5,18.2,21.9,15.1,54.4-6.8,72.5-21.9,18.2-54.4,15.1-72.5-6.8-18.2-21.9-50.6-24.9-72.5-6.8-21.9,18.2-24.9,50.6-6.8,72.5,18.2,21.9,15.1,54.4-6.8,72.5-21.9,18.2-54.4,15.1-72.5-6.8s-50.6-24.9-72.5-6.8c-21.9,18.2-24.9,50.6-6.8,72.5,18.2,21.9,15.1,54.4-6.8,72.5-21.9,18.2-54.4,15.1-72.5-6.8l352,424.7L1515.8,497.3l-352-424.7Z"/>
        <path class="cls-6" d="M1269.8,128.9c-18.2-21.9-50.6-24.9-72.5-6.8-21.9,18.2-24.9,50.6-6.8,72.5,18.2,21.9,15.1,54.4-6.8,72.5-21.9,18.2-54.4,15.1-72.5-6.8-18.2-21.9-50.6-24.9-72.5-6.8-21.9,18.2-24.9,50.6-6.8,72.5,18.2,21.9,15.1,54.4-6.8,72.5-21.9,18.2-54.4,15.1-72.5-6.8-18.2-21.9-50.6-24.9-72.5-6.8s-24.9,50.6-6.8,72.5c18.2,21.9,15.1,54.4-6.8,72.5-21.9,18.2-54.4,15.1-72.5-6.8-18.2-21.9-50.6-24.9-72.5-6.8-21.9,18.2-24.9,50.6-6.8,72.5,18.2,21.9,15.1,54.4-6.8,72.5-21.9,18.2-54.4,15.1-72.5-6.8-18.2-21.9-50.6-24.9-72.5-6.8-21.9,18.2-24.9,50.6-6.8,72.5,18.2,21.9,15.1,54.4-6.8,72.5-21.9,18.2-54.4,15.1-72.5-6.8-18.2-21.9-50.6-24.9-72.5-6.8-21.9,18.2-24.9,50.6-6.8,72.5,18.2,21.9,15.1,54.4-6.8,72.5-21.9,18.2-54.4,15.1-72.5-6.8-18.2-21.9-50.6-24.9-72.5-6.8-21.9,18.2-24.9,50.6-6.8,72.5,18.2,21.9,15.1,54.4-6.8,72.5-21.9,18.2-54.4,15.1-72.5-6.8-18.2-21.9-50.6-24.9-72.5-6.8-21.9,18.2-24.9,50.6-6.8,72.5,18.2,21.9,15.1,54.4-6.8,72.5-21.9,18.2-54.4,15.1-72.5-6.8l352,424.7L1621.8,553.6l-352-424.7Z"/>
        <path class="cls-5" d="M1305.4,243.5c-18.2-21.9-50.6-24.9-72.5-6.8-21.9,18.2-24.9,50.6-6.8,72.5s15.1,54.4-6.8,72.5c-21.9,18.2-54.4,15.1-72.5-6.8-18.2-21.9-50.6-24.9-72.5-6.8-21.9,18.2-24.9,50.6-6.8,72.5,18.2,21.9,15.1,54.4-6.8,72.5-21.9,18.2-54.4,15.1-72.5-6.8-18.2-21.9-50.6-24.9-72.5-6.8-21.9,18.2-24.9,50.6-6.8,72.5,18.2,21.9,15.1,54.4-6.8,72.5-21.9,18.2-54.4,15.1-72.5-6.8-18.2-21.9-50.6-24.9-72.5-6.8-21.9,18.2-24.9,50.6-6.8,72.5s15.1,54.4-6.8,72.5c-21.9,18.2-54.4,15.1-72.5-6.8-18.2-21.9-50.6-24.9-72.5-6.8-21.9,18.2-24.9,50.6-6.8,72.5,18.2,21.9,15.1,54.4-6.8,72.5-21.9,18.2-54.4,15.1-72.5-6.8-18.2-21.9-50.6-24.9-72.5-6.8-21.9,18.2-24.9,50.6-6.8,72.5,18.2,21.9,15.1,54.4-6.8,72.5-21.9,18.2-54.4,15.1-72.5-6.8-18.2-21.9-50.6-24.9-72.5-6.8-21.9,18.2-24.9,50.6-6.8,72.5,18.2,21.9,15.1,54.4-6.8,72.5-21.9,18.2-54.4,15.1-72.5-6.8-18.2-21.9-50.6-24.9-72.5-6.8-21.9,18.2-24.9,50.6-6.8,72.5,18.2,21.9,15.1,54.4-6.8,72.5-21.9,18.2-54.4,15.1-72.5-6.8l352,424.7L1657.4,668.2l-352-424.7Z"/>
        <path class="cls-4" d="M1411.4,299.8c-18.2-21.9-50.6-24.9-72.5-6.8-21.9,18.2-24.9,50.6-6.8,72.5,18.2,21.9,15.1,54.4-6.8,72.5-21.9,18.2-54.4,15.1-72.5-6.8-18.2-21.9-50.6-24.9-72.5-6.8-21.9,18.2-24.9,50.6-6.8,72.5,18.2,21.9,15.1,54.4-6.8,72.5-21.9,18.2-54.4,15.1-72.5-6.8-18.2-21.9-50.6-24.9-72.5-6.8-21.9,18.2-24.9,50.6-6.8,72.5,18.2,21.9,15.1,54.4-6.8,72.5-21.9,18.2-54.4,15.1-72.5-6.8-18.2-21.9-50.6-24.9-72.5-6.8-21.9,18.2-24.9,50.6-6.8,72.5,18.2,21.9,15.1,54.4-6.8,72.5-21.9,18.2-54.4,15.1-72.5-6.8-18.2-21.9-50.6-24.9-72.5-6.8-21.9,18.2-24.9,50.6-6.8,72.5,18.2,21.9,15.1,54.4-6.8,72.5-21.9,18.2-54.4,15.1-72.5-6.8-18.2-21.9-50.6-24.9-72.5-6.8-21.9,18.2-24.9,50.6-6.8,72.5,18.2,21.9,15.1,54.4-6.8,72.5-21.9,18.2-54.4,15.1-72.5-6.8-18.2-21.9-50.6-24.9-72.5-6.8-21.9,18.2-24.9,50.6-6.8,72.5,18.2,21.9,15.1,54.4-6.8,72.5-21.9,18.2-54.4,15.1-72.5-6.8-18.2-21.9-50.6-24.9-72.5-6.8-21.9,18.2-24.9,50.6-6.8,72.5,18.2,21.9,15.1,54.4-6.8,72.5-21.9,18.2-54.4,15.1-72.5-6.8l352,424.7L1763.4,724.4l-352-424.7Z"/>
        <path class="cls-3" d="M1447,414.4c-18.2-21.9-50.6-24.9-72.5-6.8-21.9,18.2-24.9,50.6-6.8,72.5,18.2,21.9,15.1,54.4-6.8,72.5-21.9,18.2-54.4,15.1-72.5-6.8-18.2-21.9-50.6-24.9-72.5-6.8-21.9,18.2-24.9,50.6-6.8,72.5,18.2,21.9,15.1,54.4-6.8,72.5-21.9,18.2-54.4,15.1-72.5-6.8-18.2-21.9-50.6-24.9-72.5-6.8s-24.9,50.6-6.8,72.5c18.2,21.9,15.1,54.4-6.8,72.5-21.9,18.2-54.4,15.1-72.5-6.8-18.2-21.9-50.6-24.9-72.5-6.8-21.9,18.2-24.9,50.6-6.8,72.5,18.2,21.9,15.1,54.4-6.8,72.5-21.9,18.2-54.4,15.1-72.5-6.8-18.2-21.9-50.6-24.9-72.5-6.8-21.9,18.2-24.9,50.6-6.8,72.5,18.2,21.9,15.1,54.4-6.8,72.5-21.9,18.2-54.4,15.1-72.5-6.8-18.2-21.9-50.6-24.9-72.5-6.8-21.9,18.2-24.9,50.6-6.8,72.5,18.2,21.9,15.1,54.4-6.8,72.5-21.9,18.2-54.4,15.1-72.5-6.8-18.2-21.9-50.6-24.9-72.5-6.8-21.9,18.2-24.9,50.6-6.8,72.5,18.2,21.9,15.1,54.4-6.8,72.5-21.9,18.2-54.4,15.1-72.5-6.8-18.2-21.9-50.6-24.9-72.5-6.8-21.9,18.2-24.9,50.6-6.8,72.5,18.2,21.9,15.1,54.4-6.8,72.5-21.9,18.2-54.4,15.1-72.5-6.8l352,424.7L1799,839.1l-352-424.7Z"/>
        <path class="cls-2" d="M1553.1,470.7c-18.2-21.9-50.6-24.9-72.5-6.8-21.9,18.2-24.9,50.6-6.8,72.5s15.1,54.4-6.8,72.5c-21.9,18.2-54.4,15.1-72.5-6.8-18.2-21.9-50.6-24.9-72.5-6.8-21.9,18.2-24.9,50.6-6.8,72.5,18.2,21.9,15.1,54.4-6.8,72.5-21.9,18.2-54.4,15.1-72.5-6.8-18.2-21.9-50.6-24.9-72.5-6.8-21.9,18.2-24.9,50.6-6.8,72.5,18.2,21.9,15.1,54.4-6.8,72.5-21.9,18.2-54.4,15.1-72.5-6.8-18.2-21.9-50.6-24.9-72.5-6.8-21.9,18.2-24.9,50.6-6.8,72.5,18.2,21.9,15.1,54.4-6.8,72.5-21.9,18.2-54.4,15.1-72.5-6.8-18.2-21.9-50.6-24.9-72.5-6.8-21.9,18.2-24.9,50.6-6.8,72.5,18.2,21.9,15.1,54.4-6.8,72.5-21.9,18.2-54.4,15.1-72.5-6.8-18.2-21.9-50.6-24.9-72.5-6.8-21.9,18.2-24.9,50.6-6.8,72.5,18.2,21.9,15.1,54.4-6.8,72.5-21.9,18.2-54.4,15.1-72.5-6.8-18.2-21.9-50.6-24.9-72.5-6.8s-24.9,50.6-6.8,72.5c18.2,21.9,15.1,54.4-6.8,72.5-21.9,18.2-54.4,15.1-72.5-6.8-18.2-21.9-50.6-24.9-72.5-6.8-21.9,18.2-24.9,50.6-6.8,72.5,18.2,21.9,15.1,54.4-6.8,72.5-21.9,18.2-54.4,15.1-72.5-6.8l352,424.7L1905,895.3l-352-424.7Z"/>
        <path class="cls-7" d="M1588.7,585.3c-18.2-21.9-50.6-24.9-72.5-6.8-21.9,18.2-24.9,50.6-6.8,72.5,18.2,21.9,15.1,54.4-6.8,72.5-21.9,18.2-54.4,15.1-72.5-6.8-18.2-21.9-50.6-24.9-72.5-6.8-21.9,18.2-24.9,50.6-6.8,72.5,18.2,21.9,15.1,54.4-6.8,72.5-21.9,18.2-54.4,15.1-72.5-6.8-18.2-21.9-50.6-24.9-72.5-6.8-21.9,18.2-24.9,50.6-6.8,72.5,18.2,21.9,15.1,54.4-6.8,72.5-21.9,18.2-54.4,15.1-72.5-6.8-18.2-21.9-50.6-24.9-72.5-6.8-21.9,18.2-24.9,50.6-6.8,72.5,18.2,21.9,15.1,54.4-6.8,72.5-21.9,18.2-54.4,15.1-72.5-6.8-18.2-21.9-50.6-24.9-72.5-6.8-21.9,18.2-24.9,50.6-6.8,72.5,18.2,21.9,15.1,54.4-6.8,72.5-21.9,18.2-54.4,15.1-72.5-6.8-18.2-21.9-50.6-24.9-72.5-6.8-21.9,18.2-24.9,50.6-6.8,72.5,18.2,21.9,15.1,54.4-6.8,72.5-21.9,18.2-54.4,15.1-72.5-6.8-18.2-21.9-50.6-24.9-72.5-6.8-21.9,18.2-24.9,50.6-6.8,72.5,18.2,21.9,15.1,54.4-6.8,72.5-21.9,18.2-54.4,15.1-72.5-6.8-18.2-21.9-50.6-24.9-72.5-6.8-21.9,18.2-24.9,50.6-6.8,72.5,18.2,21.9,15.1,54.4-6.8,72.5-21.9,18.2-54.4,15.1-72.5-6.8l352,424.7L1940.7,1010l-352-424.7Z"/>
      </g>
    </g>
  </g>
</svg>